<svg width="880" height="200" viewBox="0 0 880 200" fill="none" xmlns="http://www.w3.org/2000/svg">
<path d="M499.17 73.6199C493.56 46.8999 455.6 44.9299 434.1 61.3999C433.37 61.9599 432.42 62.2199 430.84 62.9499C431.95 59.6199 432.82 56.9999 433.69 54.3499C420.14 54.3499 407 54.3499 394.01 54.3499C378.01 102.59 360.64 150.46 344.73 198.44C358.89 198.44 374.18 198.44 388.33 198.44C393.05 184.2 397.7 170.22 402.65 155.27C403.69 156.28 404.08 156.61 404.43 156.99C420.83 174.54 455.98 168.53 477.19 143.44C496.69 120.4 503.98 96.4499 499.17 73.6199ZM456.21 99.1099C455.85 102.32 454.93 105.64 454.26 108.92C454.45 109 448.87 119.89 445.14 124.86C440.18 131.47 433.43 134.4 426.47 134.22C419.08 134.04 414.85 130.39 414.37 123.4C413.81 115.1 416.29 106.54 421.58 97.9699C427.35 88.5999 435.43 83.4599 443.82 83.5399C452.57 83.6499 457.28 89.4099 456.21 99.1099Z" fill="#1DDDB8"/>
<path d="M610.771 56.7599C592.911 48.6899 572.031 48.8199 548.921 56.6599C530.491 62.9199 516.861 76.7899 511.751 93.3799C524.461 93.3799 537.181 93.3799 549.861 93.3799C556.261 80.2399 570.901 73.9199 580.121 80.4999C581.971 81.8199 582.951 85.2499 582.261 87.8299C581.751 89.7299 577.991 92.5899 575.461 93.6899C571.801 95.2799 567.901 95.7599 564.121 96.5399C550.441 99.3699 536.781 101.38 523.071 105.13C508.131 109.21 498.361 119.13 493.301 133.15C488.321 146.97 491.291 157.81 502.381 162.98C516.491 169.54 532.801 167.98 550.831 158.7C554.311 156.91 557.731 154.97 561.231 153.07C561.201 156.04 560.861 158.71 561.261 161.07C561.471 162.29 562.741 163.7 563.981 163.73C576.531 163.92 589.181 163.84 601.081 163.84C602.591 157.15 603.501 151.12 605.421 145.07C611.101 127.08 617.421 109.09 623.051 91.0899C628.211 74.5899 624.191 62.8299 610.771 56.7599ZM544.881 141.63C541.961 141.86 539.121 141.11 536.711 140.14C533.691 138.93 533.041 136.06 534.271 132.36C535.621 128.33 538.751 125.81 542.621 124.55C553.011 121.16 563.401 118.01 574.251 114.63C570.231 130.79 559.711 140.45 544.881 141.63Z" fill="#1DDDB8"/>
<path d="M858.61 56.5503C846.6 50.1503 831.96 49.3803 815.8 53.1303C791.46 58.7603 771.4 72.3703 758.75 95.3703C746.31 117.96 745.25 138.05 758.61 153.2C774.99 171.76 815.12 171.19 844.32 152.38C853.34 146.56 860.94 139.58 866.41 129.88C852.91 129.88 839.9 129.84 826.81 129.96C825.79 129.97 824.29 131.01 823.2 131.83C814.44 138.38 806.59 138.31 799.43 135.79C792.53 133.36 790.01 127.72 791.47 119.21C818.2 119.21 844.63 119.21 871.66 119.21C873.03 115.06 874.38 111.6 875.3 108.18C881.55 84.6203 877.38 66.5403 858.61 56.5503ZM836.55 96.0602C824.34 96.0602 812.14 96.0602 799.6 96.0602C803.9 85.4602 813.42 78.9403 824.12 79.1603C834.48 79.3603 839.6 86.1302 836.55 96.0602Z" fill="#1DDDB8"/>
<path d="M693.24 52.0399C637.46 60.0899 613.24 115.65 623.66 143.52C634.71 173.04 684.44 172.16 712.17 153.46C726.38 143.88 735.39 131.88 740.98 117.3C728.81 117.3 717.11 117.44 705.52 117.22C701.92 117.16 700.16 118.01 698.14 121.87C693.79 130.13 686.09 135.4 678.42 136.21C670.52 137.05 664.94 133.25 664.27 125.52C663.32 114.61 666.79 103.38 674.99 92.3999C680.48 85.0399 687.53 81.1099 695.7 81.3999C703.49 81.6799 706.47 86.0499 706.47 93.2199C706.47 94.3699 707.53 95.9099 708.57 95.9199C721.25 96.1099 734.02 96.0399 747.33 96.0399C750.51 81.7999 748.21 70.8199 740.03 62.8499C728.64 51.7299 712.22 49.2999 693.24 52.0399Z" fill="#1DDDB8"/>
<path d="M411.34 12.89C411.66 12.42 412.03 12.01 412.41 11.67C412.79 11.33 413.21 11.03 413.64 10.79C414.07 10.54 414.51 10.37 414.95 10.25C415.39 10.13 415.82 10.08 416.23 10.08C416.61 10.08 416.96 10.13 417.28 10.23C417.61 10.34 417.9 10.48 418.13 10.66C418.36 10.83 418.56 11.02 418.72 11.21C418.88 11.4 419.02 11.6 419.13 11.82L423.51 9C423.03 7.91 422.27 7.1 421.26 6.56C420.24 6.02 419.13 5.75 417.9 5.75C416.98 5.75 416.08 5.85 415.18 6.06C414.3 6.27 413.45 6.56 412.67 6.94C411.89 7.32 411.14 7.77 410.43 8.3C409.71 8.83 409.06 9.41 408.49 10.06C407.91 10.7 407.39 11.4 406.93 12.13C406.46 12.87 406.09 13.64 405.77 14.44C405.42 15.36 405.19 16.22 405.1 17.03C405 17.84 405.04 18.56 405.18 19.18C405.33 19.8 405.58 20.36 405.94 20.86C406.28 21.36 406.72 21.76 407.25 22.08C407.78 22.4 408.38 22.65 409.04 22.81C409.71 22.98 410.43 23.06 411.23 23.06C412.64 23.06 414.06 22.76 415.48 22.17C416.9 21.58 418.18 20.8 419.32 19.85L417.12 17.02C416.51 17.53 415.82 17.94 415.04 18.26C414.26 18.58 413.55 18.73 412.9 18.73C412.28 18.73 411.77 18.61 411.34 18.38C410.92 18.15 410.61 17.84 410.43 17.45C410.24 17.05 410.15 16.6 410.16 16.08C410.18 15.57 410.29 15.02 410.51 14.45C410.74 13.88 411 13.37 411.34 12.89Z" fill="#1DDDB8"/>
<path d="M432.97 5.97998L426.5 22.81H437.72L439.26 18.81H432.57L437.5 5.97998H432.97Z" fill="#1DDDB8"/>
<path d="M446.16 22.81H450.74L457.2 5.97998H452.63L446.16 22.81Z" fill="#1DDDB8"/>
<path d="M461.72 0.810059L457.57 0.830059L453.6 4.43006H457.39L461.72 0.810059Z" fill="#1DDDB8"/>
<path d="M468.04 13.6H468.08L470.08 22.81H474.74L481.21 5.97998H476.7L473.05 15.47H473L471.02 5.97998H466.49L460.02 22.81H464.49L468.04 13.6Z" fill="#1DDDB8"/>
<path d="M488.591 22.81L495.051 5.97998H490.491L484.031 22.81H488.591Z" fill="#1DDDB8"/>
<path d="M506.121 12.89C506.441 12.42 506.801 12.01 507.181 11.67C507.571 11.33 507.981 11.03 508.421 10.79C508.851 10.54 509.281 10.37 509.731 10.25C510.161 10.13 510.591 10.08 511.011 10.08C511.381 10.08 511.731 10.13 512.061 10.23C512.391 10.34 512.671 10.48 512.901 10.66C513.131 10.83 513.311 11.02 513.491 11.21C513.651 11.4 513.781 11.6 513.891 11.82L518.271 9C517.771 7.91 517.041 7.1 516.021 6.56C515.011 6.02 513.881 5.75 512.661 5.75C511.731 5.75 510.831 5.85 509.931 6.06C509.051 6.27 508.211 6.56 507.431 6.94C506.651 7.32 505.901 7.77 505.201 8.3C504.481 8.83 503.841 9.41 503.261 10.06C502.681 10.7 502.161 11.4 501.691 12.13C501.231 12.87 500.851 13.64 500.531 14.44C500.181 15.36 499.941 16.22 499.871 17.03C499.781 17.84 499.801 18.56 499.941 19.18C500.101 19.8 500.351 20.36 500.701 20.86C501.051 21.36 501.491 21.76 502.021 22.08C502.551 22.4 503.151 22.65 503.821 22.81C504.491 22.98 505.211 23.06 506.001 23.06C507.411 23.06 508.831 22.76 510.241 22.17C511.651 21.58 512.941 20.8 514.081 19.85L511.881 17.02C511.271 17.53 510.561 17.94 509.801 18.26C509.031 18.58 508.311 18.73 507.651 18.73C507.031 18.73 506.511 18.61 506.081 18.38C505.661 18.15 505.351 17.84 505.171 17.45C504.991 17.05 504.891 16.6 504.911 16.08C504.921 15.57 505.041 15.02 505.261 14.45C505.511 13.88 505.791 13.37 506.121 12.89Z" fill="#1DDDB8"/>
<path d="M536.5 22.81L536.87 5.97998H532.56L519.99 22.81H524.72L526.61 20.1H532L531.8 22.81H536.5ZM529.2 16.31L532.56 11.47H532.61L532.26 16.31H529.2Z" fill="#1DDDB8"/>
<path d="M160.87 181.47C160.14 181.25 159.26 181.03 158.24 180.8C157.22 180.57 156.08 180.35 154.82 180.17C152.31 179.79 149.4 179.45 146.27 179.47C144.7 179.49 143.09 179.62 141.45 179.78C139.81 179.93 138.14 180.08 136.47 180.18C133.14 180.38 129.79 180.55 126.67 180.8C123.54 181.01 120.62 181.26 118.11 181.46C113.1 181.88 109.77 182.22 109.77 182.22V182.81C109.77 182.81 113.1 183.16 118.11 183.58C120.61 183.78 123.53 184.02 126.67 184.24C129.79 184.49 133.13 184.66 136.47 184.86C138.14 184.96 139.81 185.11 141.45 185.26C143.09 185.42 144.71 185.55 146.27 185.57C149.4 185.58 152.32 185.25 154.82 184.87C156.07 184.68 157.22 184.46 158.24 184.23C159.26 184.01 160.14 183.79 160.87 183.57C162.33 183.16 163.16 182.82 163.16 182.82V182.23C163.16 182.22 162.33 181.88 160.87 181.47Z" fill="#1DDDB8"/>
<path d="M325.269 102.32C323.249 101.97 320.809 101.62 317.999 101.26C315.189 100.89 312.029 100.54 308.569 100.24C301.659 99.6398 293.599 99.0898 284.959 99.1198C280.639 99.1498 276.179 99.3598 271.649 99.6098C267.119 99.8598 262.499 100.09 257.909 100.25C248.689 100.57 239.479 100.85 230.839 101.25C222.199 101.6 214.149 101.98 207.239 102.31C193.419 102.98 184.209 103.54 184.209 103.54V104.48C184.209 104.48 193.419 105.04 207.239 105.71C214.149 106.03 222.199 106.42 230.839 106.77C239.479 107.16 248.689 107.44 257.909 107.77C262.509 107.93 267.119 108.16 271.649 108.41C276.179 108.66 280.649 108.88 284.959 108.9C293.599 108.93 301.659 108.38 308.569 107.78C312.019 107.47 315.189 107.13 317.999 106.75C320.809 106.39 323.249 106.03 325.269 105.69C329.299 105.03 331.599 104.48 331.599 104.48V103.54C331.599 103.53 329.299 102.98 325.269 102.32Z" fill="#1DDDB8"/>
<path d="M337.081 118.02C335.211 117.67 332.941 117.32 330.321 116.96C327.711 116.59 324.761 116.24 321.551 115.93C315.121 115.33 307.621 114.79 299.591 114.81C295.581 114.84 291.431 115.05 287.211 115.3C282.981 115.55 278.701 115.78 274.421 115.94C265.851 116.26 257.281 116.55 249.251 116.94C241.221 117.29 233.721 117.68 227.301 118C214.441 118.67 205.881 119.23 205.881 119.23V120.17C205.881 120.17 214.441 120.73 227.301 121.4C233.721 121.72 241.221 122.11 249.251 122.46C257.281 122.85 265.861 123.13 274.421 123.46C278.701 123.62 282.981 123.85 287.211 124.1C291.431 124.36 295.581 124.57 299.591 124.6C307.621 124.62 315.121 124.08 321.551 123.48C324.761 123.17 327.711 122.82 330.321 122.45C332.941 122.08 335.211 121.73 337.081 121.39C340.831 120.73 342.981 120.17 342.981 120.17V119.23C342.971 119.23 340.831 118.69 337.081 118.02Z" fill="#1DDDB8"/>
<path d="M306.06 86.62C303.72 86.27 300.87 85.9299 297.61 85.5599C294.34 85.1899 290.66 84.8399 286.65 84.5299C278.62 83.9199 269.25 83.38 259.21 83.4C254.19 83.43 249 83.65 243.74 83.9C238.47 84.15 233.11 84.38 227.76 84.54C217.05 84.86 206.34 85.1399 196.3 85.5299C186.26 85.8799 176.9 86.2699 168.86 86.5899C152.8 87.2599 142.09 87.82 142.09 87.82V88.7699C142.09 88.7699 152.8 89.33 168.86 90C176.89 90.32 186.26 90.7099 196.3 91.0599C206.34 91.4599 217.05 91.7299 227.76 92.0599C233.12 92.2199 238.47 92.45 243.74 92.71C249.01 92.96 254.2 93.1699 259.21 93.1999C269.25 93.2199 278.62 92.68 286.65 92.08C290.66 91.78 294.34 91.4299 297.61 91.0599C300.87 90.6999 303.72 90.34 306.06 90C310.74 89.34 313.42 88.79 313.42 88.79V87.8399C313.42 87.8299 310.74 87.28 306.06 86.62Z" fill="#1DDDB8"/>
<path d="M308.39 133.72C306.67 133.38 304.58 133.03 302.19 132.66C299.79 132.29 297.09 131.94 294.14 131.63C288.24 131.02 281.36 130.49 273.99 130.51C270.31 130.54 266.5 130.75 262.63 131.01C258.76 131.25 254.83 131.49 250.89 131.65C243.03 131.97 235.17 132.26 227.8 132.65C220.43 133 213.55 133.39 207.66 133.71C195.86 134.38 188 134.94 188 134.94V135.88C188 135.88 195.86 136.44 207.66 137.11C213.55 137.44 220.43 137.83 227.8 138.17C235.18 138.56 243.04 138.84 250.89 139.17C254.82 139.33 258.76 139.56 262.63 139.81C266.5 140.06 270.31 140.27 273.99 140.3C281.36 140.32 288.24 139.78 294.14 139.18C297.09 138.87 299.79 138.53 302.19 138.15C304.58 137.79 306.67 137.43 308.39 137.09C311.82 136.43 313.8 135.88 313.8 135.88V134.94C313.8 134.94 311.83 134.39 308.39 133.72Z" fill="#1DDDB8"/>
<path d="M260.4 149.42C258.92 149.09 257.14 148.73 255.09 148.36C253.04 147.99 250.73 147.64 248.21 147.33C243.17 146.73 237.28 146.18 230.98 146.21C227.83 146.23 224.57 146.44 221.26 146.7C217.94 146.95 214.59 147.18 211.22 147.34C204.5 147.67 197.77 147.94 191.46 148.34C185.16 148.69 179.27 149.08 174.22 149.4C164.13 150.07 157.41 150.63 157.41 150.63V151.57C157.41 151.57 164.13 152.13 174.22 152.8C179.27 153.13 185.16 153.52 191.46 153.87C197.77 154.26 204.49 154.54 211.22 154.86C214.59 155.02 217.94 155.25 221.26 155.51C224.57 155.76 227.83 155.98 230.98 156C237.28 156.03 243.17 155.49 248.21 154.88C250.74 154.57 253.04 154.23 255.09 153.85C257.14 153.49 258.92 153.13 260.4 152.79C263.34 152.13 265.02 151.58 265.02 151.58V150.64C265.02 150.64 263.34 150.09 260.4 149.42Z" fill="#1DDDB8"/>
<path d="M213.819 165.58C212.589 165.33 211.099 165.07 209.399 164.81C207.689 164.54 205.769 164.28 203.669 164.06C199.459 163.62 194.559 163.22 189.309 163.24C186.689 163.26 183.969 163.42 181.209 163.6C178.459 163.78 175.649 163.96 172.849 164.07C167.249 164.31 161.639 164.51 156.389 164.8C151.139 165.05 146.239 165.33 142.039 165.57C133.639 166.06 128.029 166.46 128.029 166.46V167.15C128.029 167.15 133.629 167.55 142.039 168.05C146.239 168.29 151.139 168.58 156.389 168.82C161.639 169.11 167.249 169.31 172.849 169.54C175.649 169.66 178.449 169.83 181.209 170.01C183.969 170.19 186.689 170.35 189.309 170.37C194.559 170.38 199.459 169.99 203.669 169.55C205.769 169.33 207.689 169.08 209.399 168.8C211.099 168.54 212.589 168.28 213.819 168.03C216.269 167.55 217.669 167.14 217.669 167.14V166.45C217.669 166.46 216.269 166.07 213.819 165.58Z" fill="#1DDDB8"/>
<path d="M267.04 70.9197C263.25 70.5697 258.65 70.2197 253.36 69.8497C248.08 69.4797 242.13 69.1297 235.63 68.8297C222.64 68.2297 207.47 67.6797 191.22 67.7097C183.1 67.7397 174.7 67.9497 166.17 68.1997C157.64 68.4497 148.98 68.6797 140.32 68.8397C122.98 69.1597 105.65 69.4397 89.4099 69.8297C73.1599 70.1797 57.9999 70.5697 44.9899 70.8897C18.9999 71.5597 1.66992 72.1197 1.66992 72.1197V73.0597C1.66992 73.0597 18.9999 73.6197 44.9899 74.2897C57.9899 74.6197 73.1499 75.0097 89.4099 75.3497C105.66 75.7497 122.99 76.0197 140.32 76.3497C148.98 76.5097 157.64 76.7397 166.17 76.9997C174.7 77.2497 183.1 77.4597 191.22 77.4797C207.46 77.5097 222.63 76.9597 235.63 76.3597C242.13 76.0497 248.09 75.7097 253.36 75.3297C258.65 74.9697 263.25 74.6097 267.04 74.2697C274.62 73.5997 278.96 73.0497 278.96 73.0497V72.1097C278.96 72.1297 274.62 71.5797 267.04 70.9197Z" fill="#1DDDB8"/>
<path d="M211.591 55.2098C209.061 54.8598 205.971 54.5098 202.421 54.1398C198.881 53.7798 194.881 53.4198 190.521 53.1198C181.801 52.5098 171.621 51.9698 160.731 51.9898C155.281 52.0098 149.641 52.2298 143.921 52.4798C138.201 52.7298 132.391 52.9698 126.571 53.1298C114.951 53.4498 103.321 53.7298 92.4108 54.1298C81.5108 54.4698 71.3408 54.8698 62.6208 55.1898C45.1908 55.8598 33.5508 56.4198 33.5508 56.4198V57.3598C33.5508 57.3598 45.1908 57.9198 62.6208 58.5898C71.3408 58.9098 81.5108 59.2998 92.4108 59.6498C103.311 60.0398 114.941 60.3198 126.571 60.6498C132.381 60.8098 138.191 61.0398 143.921 61.2898C149.641 61.5398 155.281 61.7498 160.731 61.7798C171.621 61.7998 181.801 61.2598 190.521 60.6598C194.881 60.3498 198.881 60.0098 202.421 59.6298C205.971 59.2698 209.051 58.9098 211.591 58.5698C216.681 57.9098 219.591 57.3598 219.591 57.3598V56.4198C219.591 56.4298 216.691 55.8798 211.591 55.2098Z" fill="#1DDDB8"/>
</svg>
