<?xml version="1.0" encoding="utf-8"?>
<!-- Generator: Adobe Illustrator 24.1.0, SVG Export Plug-In . SVG Version: 6.00 Build 0)  -->
<svg version="1.1" id="Layer_1" xmlns="http://www.w3.org/2000/svg" xmlns:xlink="http://www.w3.org/1999/xlink" x="0px" y="0px"
	 viewBox="0 0 880 200" style="enable-background:new 0 0 880 200;" xml:space="preserve">
<style type="text/css">
	.st0{fill:url(#SVGID_1_);}
	.st1{fill:url(#SVGID_2_);}
	.st2{fill:url(#SVGID_3_);}
	.st3{fill:url(#SVGID_4_);}
	.st4{fill:url(#SVGID_5_);}
	.st5{fill:url(#SVGID_6_);}
	.st6{fill:url(#SVGID_7_);}
	.st7{fill:url(#SVGID_8_);}
	.st8{fill:url(#SVGID_9_);}
	.st9{fill:url(#SVGID_10_);}
	.st10{fill:url(#SVGID_11_);}
	.st11{fill:url(#SVGID_12_);}
	.st12{fill:url(#SVGID_13_);}
	.st13{fill:url(#SVGID_14_);}
	.st14{fill:url(#SVGID_15_);}
	.st15{fill:url(#SVGID_16_);}
	.st16{fill:url(#SVGID_17_);}
	.st17{fill:url(#SVGID_18_);}
	.st18{fill:url(#SVGID_19_);}
	.st19{fill:url(#SVGID_20_);}
	.st20{fill:url(#SVGID_21_);}
</style>
<g>
	
		<linearGradient id="SVGID_1_" gradientUnits="userSpaceOnUse" x1="344.7304" y1="-16276.6562" x2="500.6057" y2="-16276.6562" gradientTransform="matrix(1 0 0 -1 0 -16152)">
		<stop  offset="0" style="stop-color:#00B8A7"/>
		<stop  offset="0.5545" style="stop-color:#00A9A1"/>
		<stop  offset="1" style="stop-color:#00A9A1"/>
	</linearGradient>
	<path class="st0" d="M499.17,73.62C493.56,46.9,455.6,44.93,434.1,61.4c-0.73,0.56-1.68,0.82-3.26,1.55
		c1.11-3.33,1.98-5.95,2.85-8.6c-13.55,0-26.69,0-39.68,0c-16,48.24-33.37,96.11-49.28,144.09c14.16,0,29.45,0,43.6,0
		c4.72-14.24,9.37-28.22,14.32-43.17c1.04,1.01,1.43,1.34,1.78,1.72c16.4,17.55,51.55,11.54,72.76-13.55
		C496.69,120.4,503.98,96.45,499.17,73.62z M456.21,99.11c-0.36,3.21-1.28,6.53-1.95,9.81c0.19,0.08-5.39,10.97-9.12,15.94
		c-4.96,6.61-11.71,9.54-18.67,9.36c-7.39-0.18-11.62-3.83-12.1-10.82c-0.56-8.3,1.92-16.86,7.21-25.43
		c5.77-9.37,13.85-14.51,22.24-14.43C452.57,83.65,457.28,89.41,456.21,99.11z"/>
	
		<linearGradient id="SVGID_2_" gradientUnits="userSpaceOnUse" x1="490.9603" y1="-16260.8584" x2="625.2123" y2="-16260.8584" gradientTransform="matrix(1 0 0 -1 0 -16152)">
		<stop  offset="0" style="stop-color:#00B8A7"/>
		<stop  offset="0.5545" style="stop-color:#00A9A1"/>
		<stop  offset="1" style="stop-color:#00A9A1"/>
	</linearGradient>
	<path class="st1" d="M610.77,56.76c-17.86-8.07-38.74-7.94-61.85-0.1c-18.43,6.26-32.06,20.13-37.17,36.72c12.71,0,25.43,0,38.11,0
		c6.4-13.14,21.04-19.46,30.26-12.88c1.85,1.32,2.83,4.75,2.14,7.33c-0.51,1.9-4.27,4.76-6.8,5.86c-3.66,1.59-7.56,2.07-11.34,2.85
		c-13.68,2.83-27.34,4.84-41.05,8.59c-14.94,4.08-24.71,14-29.77,28.02c-4.98,13.82-2.01,24.66,9.08,29.83
		c14.11,6.56,30.42,5,48.45-4.28c3.48-1.79,6.9-3.73,10.4-5.63c-0.03,2.97-0.37,5.64,0.03,8c0.21,1.22,1.48,2.63,2.72,2.66
		c12.55,0.19,25.2,0.11,37.1,0.11c1.51-6.69,2.42-12.72,4.34-18.77c5.68-17.99,12-35.98,17.63-53.98
		C628.21,74.59,624.19,62.83,610.77,56.76z M544.88,141.63c-2.92,0.23-5.76-0.52-8.17-1.49c-3.02-1.21-3.67-4.08-2.44-7.78
		c1.35-4.03,4.48-6.55,8.35-7.81c10.39-3.39,20.78-6.54,31.63-9.92C570.23,130.79,559.71,140.45,544.88,141.63z"/>
	
		<linearGradient id="SVGID_3_" gradientUnits="userSpaceOnUse" x1="748.9986" y1="-16260.8428" x2="878" y2="-16260.8428" gradientTransform="matrix(1 0 0 -1 0 -16152)">
		<stop  offset="0" style="stop-color:#00B8A7"/>
		<stop  offset="0.5545" style="stop-color:#00A9A1"/>
		<stop  offset="1" style="stop-color:#00A9A1"/>
	</linearGradient>
	<path class="st2" d="M858.61,56.55c-12.01-6.4-26.65-7.17-42.81-3.42c-24.34,5.63-44.4,19.24-57.05,42.24
		c-12.44,22.59-13.5,42.68-0.14,57.83c16.38,18.56,56.51,17.99,85.71-0.82c9.02-5.82,16.62-12.8,22.09-22.5
		c-13.5,0-26.51-0.04-39.6,0.08c-1.02,0.01-2.52,1.05-3.61,1.87c-8.76,6.55-16.61,6.48-23.77,3.96c-6.9-2.43-9.42-8.07-7.96-16.58
		c26.73,0,53.16,0,80.19,0c1.37-4.15,2.72-7.61,3.64-11.03C881.55,84.62,877.38,66.54,858.61,56.55z M836.55,96.06
		c-12.21,0-24.41,0-36.95,0c4.3-10.6,13.82-17.12,24.52-16.9C834.48,79.36,839.6,86.13,836.55,96.06z"/>
	
		<linearGradient id="SVGID_4_" gradientUnits="userSpaceOnUse" x1="621.3004" y1="-16260.8711" x2="748.7196" y2="-16260.8711" gradientTransform="matrix(1 0 0 -1 0 -16152)">
		<stop  offset="0" style="stop-color:#00B8A7"/>
		<stop  offset="0.5545" style="stop-color:#00A9A1"/>
		<stop  offset="1" style="stop-color:#00A9A1"/>
	</linearGradient>
	<path class="st3" d="M693.24,52.04c-55.78,8.05-80,63.61-69.58,91.48c11.05,29.52,60.78,28.64,88.51,9.94
		c14.21-9.58,23.22-21.58,28.81-36.16c-12.17,0-23.87,0.14-35.46-0.08c-3.6-0.06-5.36,0.79-7.38,4.65
		c-4.35,8.26-12.05,13.53-19.72,14.34c-7.9,0.84-13.48-2.96-14.15-10.69c-0.95-10.91,2.52-22.14,10.72-33.12
		c5.49-7.36,12.54-11.29,20.71-11c7.79,0.28,10.77,4.65,10.77,11.82c0,1.15,1.06,2.69,2.1,2.7c12.68,0.19,25.45,0.12,38.76,0.12
		c3.18-14.24,0.88-25.22-7.3-33.19C728.64,51.73,712.22,49.3,693.24,52.04z"/>
	<g>
		
			<linearGradient id="SVGID_5_" gradientUnits="userSpaceOnUse" x1="405.0637" y1="-16166.3984" x2="423.5161" y2="-16166.3984" gradientTransform="matrix(1 0 0 -1 0 -16152)">
			<stop  offset="0" style="stop-color:#00B8A7"/>
			<stop  offset="0.5545" style="stop-color:#00A9A1"/>
			<stop  offset="1" style="stop-color:#00A9A1"/>
		</linearGradient>
		<path class="st4" d="M411.34,12.89c0.32-0.47,0.69-0.88,1.07-1.22c0.38-0.34,0.8-0.64,1.23-0.88c0.43-0.25,0.87-0.42,1.31-0.54
			c0.44-0.12,0.87-0.17,1.28-0.17c0.38,0,0.73,0.05,1.05,0.15c0.33,0.11,0.62,0.25,0.85,0.43c0.23,0.17,0.43,0.36,0.59,0.55
			c0.16,0.19,0.3,0.39,0.41,0.61l4.38-2.82c-0.48-1.09-1.24-1.9-2.25-2.44c-1.02-0.54-2.13-0.81-3.36-0.81
			c-0.92,0-1.82,0.1-2.72,0.31c-0.88,0.21-1.73,0.5-2.51,0.88c-0.78,0.38-1.53,0.83-2.24,1.36c-0.72,0.53-1.37,1.11-1.94,1.76
			c-0.58,0.64-1.1,1.34-1.56,2.07c-0.47,0.74-0.84,1.51-1.16,2.31c-0.35,0.92-0.58,1.78-0.67,2.59c-0.1,0.81-0.06,1.53,0.08,2.15
			c0.15,0.62,0.4,1.18,0.76,1.68c0.34,0.5,0.78,0.9,1.31,1.22c0.53,0.32,1.13,0.57,1.79,0.73c0.67,0.17,1.39,0.25,2.19,0.25
			c1.41,0,2.83-0.3,4.25-0.89c1.42-0.59,2.7-1.37,3.84-2.32l-2.2-2.83c-0.61,0.51-1.3,0.92-2.08,1.24
			c-0.78,0.32-1.49,0.47-2.14,0.47c-0.62,0-1.13-0.12-1.56-0.35c-0.42-0.23-0.73-0.54-0.91-0.93c-0.19-0.4-0.28-0.85-0.27-1.37
			c0.02-0.51,0.13-1.06,0.35-1.63C410.74,13.88,411,13.37,411.34,12.89z"/>
		
			<linearGradient id="SVGID_6_" gradientUnits="userSpaceOnUse" x1="426.4966" y1="-16166.3945" x2="439.2614" y2="-16166.3945" gradientTransform="matrix(1 0 0 -1 0 -16152)">
			<stop  offset="0" style="stop-color:#00B8A7"/>
			<stop  offset="0.5545" style="stop-color:#00A9A1"/>
			<stop  offset="1" style="stop-color:#00A9A1"/>
		</linearGradient>
		<polygon class="st5" points="432.97,5.98 426.5,22.81 437.72,22.81 439.26,18.81 432.57,18.81 437.5,5.98 		"/>
		
			<linearGradient id="SVGID_7_" gradientUnits="userSpaceOnUse" x1="446.1621" y1="-16166.3945" x2="457.1961" y2="-16166.3945" gradientTransform="matrix(1 0 0 -1 0 -16152)">
			<stop  offset="0" style="stop-color:#00B8A7"/>
			<stop  offset="0.5545" style="stop-color:#00A9A1"/>
			<stop  offset="1" style="stop-color:#00A9A1"/>
		</linearGradient>
		<polygon class="st6" points="446.16,22.81 450.74,22.81 457.2,5.98 452.63,5.98 		"/>
		
			<linearGradient id="SVGID_8_" gradientUnits="userSpaceOnUse" x1="453.6002" y1="-16154.6211" x2="461.7171" y2="-16154.6211" gradientTransform="matrix(1 0 0 -1 0 -16152)">
			<stop  offset="0" style="stop-color:#00B8A7"/>
			<stop  offset="0.5545" style="stop-color:#00A9A1"/>
			<stop  offset="1" style="stop-color:#00A9A1"/>
		</linearGradient>
		<polygon class="st7" points="461.72,0.81 457.57,0.83 453.6,4.43 457.39,4.43 		"/>
		
			<linearGradient id="SVGID_9_" gradientUnits="userSpaceOnUse" x1="460.0234" y1="-16166.3945" x2="481.2111" y2="-16166.3945" gradientTransform="matrix(1 0 0 -1 0 -16152)">
			<stop  offset="0" style="stop-color:#00B8A7"/>
			<stop  offset="0.5545" style="stop-color:#00A9A1"/>
			<stop  offset="1" style="stop-color:#00A9A1"/>
		</linearGradient>
		<polygon class="st8" points="468.04,13.6 468.08,13.6 470.08,22.81 474.74,22.81 481.21,5.98 476.7,5.98 473.05,15.47 473,15.47 
			471.02,5.98 466.49,5.98 460.02,22.81 464.49,22.81 		"/>
		
			<linearGradient id="SVGID_10_" gradientUnits="userSpaceOnUse" x1="484.0312" y1="-16166.3945" x2="495.0537" y2="-16166.3945" gradientTransform="matrix(1 0 0 -1 0 -16152)">
			<stop  offset="0" style="stop-color:#00B8A7"/>
			<stop  offset="0.5545" style="stop-color:#00A9A1"/>
			<stop  offset="1" style="stop-color:#00A9A1"/>
		</linearGradient>
		<polygon class="st9" points="488.59,22.81 495.05,5.98 490.49,5.98 484.03,22.81 		"/>
		
			<linearGradient id="SVGID_11_" gradientUnits="userSpaceOnUse" x1="499.836" y1="-16166.3984" x2="518.2891" y2="-16166.3984" gradientTransform="matrix(1 0 0 -1 0 -16152)">
			<stop  offset="0" style="stop-color:#00B8A7"/>
			<stop  offset="0.5545" style="stop-color:#00A9A1"/>
			<stop  offset="1" style="stop-color:#00A9A1"/>
		</linearGradient>
		<path class="st10" d="M506.12,12.89c0.32-0.47,0.68-0.88,1.06-1.22c0.39-0.34,0.8-0.64,1.24-0.88c0.43-0.25,0.86-0.42,1.31-0.54
			c0.43-0.12,0.86-0.17,1.28-0.17c0.37,0,0.72,0.05,1.05,0.15c0.33,0.11,0.61,0.25,0.84,0.43c0.23,0.17,0.41,0.36,0.59,0.55
			c0.16,0.19,0.29,0.39,0.4,0.61l4.38-2.82c-0.5-1.09-1.23-1.9-2.25-2.44c-1.01-0.54-2.14-0.81-3.36-0.81
			c-0.93,0-1.83,0.1-2.73,0.31c-0.88,0.21-1.72,0.5-2.5,0.88c-0.78,0.38-1.53,0.83-2.23,1.36c-0.72,0.53-1.36,1.11-1.94,1.76
			c-0.58,0.64-1.1,1.34-1.57,2.07c-0.46,0.74-0.84,1.51-1.16,2.31c-0.35,0.92-0.59,1.78-0.66,2.59c-0.09,0.81-0.07,1.53,0.07,2.15
			c0.16,0.62,0.41,1.18,0.76,1.68c0.35,0.5,0.79,0.9,1.32,1.22c0.53,0.32,1.13,0.57,1.8,0.73c0.67,0.17,1.39,0.25,2.18,0.25
			c1.41,0,2.83-0.3,4.24-0.89c1.41-0.59,2.7-1.37,3.84-2.32l-2.2-2.83c-0.61,0.51-1.32,0.92-2.08,1.24
			c-0.77,0.32-1.49,0.47-2.15,0.47c-0.62,0-1.14-0.12-1.57-0.35c-0.42-0.23-0.73-0.54-0.91-0.93c-0.18-0.4-0.28-0.85-0.26-1.37
			c0.01-0.51,0.13-1.06,0.35-1.63C505.51,13.88,505.79,13.37,506.12,12.89z"/>
		
			<linearGradient id="SVGID_12_" gradientUnits="userSpaceOnUse" x1="519.9755" y1="-16166.3945" x2="536.8618" y2="-16166.3945" gradientTransform="matrix(1 0 0 -1 0 -16152)">
			<stop  offset="0" style="stop-color:#00B8A7"/>
			<stop  offset="0.5545" style="stop-color:#00A9A1"/>
			<stop  offset="1" style="stop-color:#00A9A1"/>
		</linearGradient>
		<path class="st11" d="M536.5,22.81l0.37-16.83h-4.31l-12.57,16.83h4.73l1.89-2.71h5.39l-0.2,2.71H536.5z M529.2,16.31l3.36-4.84
			h0.05l-0.35,4.84H529.2z"/>
	</g>
</g>
<g>
	<linearGradient id="SVGID_13_" gradientUnits="userSpaceOnUse" x1="109.7661" y1="182.5121" x2="163.16" y2="182.5121">
		<stop  offset="0" style="stop-color:#00B8A7"/>
		<stop  offset="0.5545" style="stop-color:#00A9A1"/>
		<stop  offset="1" style="stop-color:#00A9A1"/>
	</linearGradient>
	<path class="st12" d="M160.87,181.47c-0.73-0.22-1.61-0.44-2.63-0.67c-1.02-0.23-2.16-0.45-3.42-0.63
		c-2.51-0.38-5.42-0.72-8.55-0.7c-1.57,0.02-3.18,0.15-4.82,0.31c-1.64,0.15-3.31,0.3-4.98,0.4c-3.33,0.2-6.68,0.37-9.8,0.62
		c-3.13,0.21-6.05,0.46-8.56,0.66c-5.01,0.42-8.34,0.76-8.34,0.76v0.59c0,0,3.33,0.35,8.34,0.77c2.5,0.2,5.42,0.44,8.56,0.66
		c3.12,0.25,6.46,0.42,9.8,0.62c1.67,0.1,3.34,0.25,4.98,0.4c1.64,0.16,3.26,0.29,4.82,0.31c3.13,0.01,6.05-0.32,8.55-0.7
		c1.25-0.19,2.4-0.41,3.42-0.64c1.02-0.22,1.9-0.44,2.63-0.66c1.46-0.41,2.29-0.75,2.29-0.75v-0.59
		C163.16,182.22,162.33,181.88,160.87,181.47z"/>
	<linearGradient id="SVGID_14_" gradientUnits="userSpaceOnUse" x1="184.2107" y1="104.0017" x2="331.6019" y2="104.0017">
		<stop  offset="0" style="stop-color:#00B8A7"/>
		<stop  offset="0.5545" style="stop-color:#00A9A1"/>
		<stop  offset="1" style="stop-color:#00A9A1"/>
	</linearGradient>
	<path class="st13" d="M325.27,102.32c-2.02-0.35-4.46-0.7-7.27-1.06c-2.81-0.37-5.97-0.72-9.43-1.02
		c-6.91-0.6-14.97-1.15-23.61-1.12c-4.32,0.03-8.78,0.24-13.31,0.49c-4.53,0.25-9.15,0.48-13.74,0.64c-9.22,0.32-18.43,0.6-27.07,1
		c-8.64,0.35-16.69,0.73-23.6,1.06c-13.82,0.67-23.03,1.23-23.03,1.23v0.94c0,0,9.21,0.56,23.03,1.23
		c6.91,0.32,14.96,0.71,23.6,1.06c8.64,0.39,17.85,0.67,27.07,1c4.6,0.16,9.21,0.39,13.74,0.64s9,0.47,13.31,0.49
		c8.64,0.03,16.7-0.52,23.61-1.12c3.45-0.31,6.62-0.65,9.43-1.03c2.81-0.36,5.25-0.72,7.27-1.06c4.03-0.66,6.33-1.21,6.33-1.21
		v-0.94C331.6,103.53,329.3,102.98,325.27,102.32z"/>
	<linearGradient id="SVGID_15_" gradientUnits="userSpaceOnUse" x1="205.869" y1="119.7046" x2="342.9713" y2="119.7046">
		<stop  offset="0" style="stop-color:#00B8A7"/>
		<stop  offset="0.5545" style="stop-color:#00A9A1"/>
		<stop  offset="1" style="stop-color:#00A9A1"/>
	</linearGradient>
	<path class="st14" d="M337.08,118.02c-1.87-0.35-4.14-0.7-6.76-1.06c-2.61-0.37-5.56-0.72-8.77-1.03
		c-6.43-0.6-13.93-1.14-21.96-1.12c-4.01,0.03-8.16,0.24-12.38,0.49c-4.23,0.25-8.51,0.48-12.79,0.64c-8.57,0.32-17.14,0.61-25.17,1
		c-8.03,0.35-15.53,0.74-21.95,1.06c-12.86,0.67-21.42,1.23-21.42,1.23v0.94c0,0,8.56,0.56,21.42,1.23
		c6.42,0.32,13.92,0.71,21.95,1.06c8.03,0.39,16.61,0.67,25.17,1c4.28,0.16,8.56,0.39,12.79,0.64c4.22,0.26,8.37,0.47,12.38,0.5
		c8.03,0.02,15.53-0.52,21.96-1.12c3.21-0.31,6.16-0.66,8.77-1.03c2.62-0.37,4.89-0.72,6.76-1.06c3.75-0.66,5.9-1.22,5.9-1.22v-0.94
		C342.97,119.23,340.83,118.69,337.08,118.02z"/>
	<linearGradient id="SVGID_16_" gradientUnits="userSpaceOnUse" x1="142.0794" y1="88.2974" x2="313.4227" y2="88.2974">
		<stop  offset="0" style="stop-color:#00B8A7"/>
		<stop  offset="0.5545" style="stop-color:#00A9A1"/>
		<stop  offset="1" style="stop-color:#00A9A1"/>
	</linearGradient>
	<path class="st15" d="M306.06,86.62c-2.34-0.35-5.19-0.69-8.45-1.06c-3.27-0.37-6.95-0.72-10.96-1.03
		c-8.03-0.61-17.4-1.15-27.44-1.13c-5.02,0.03-10.21,0.25-15.47,0.5c-5.27,0.25-10.63,0.48-15.98,0.64
		c-10.71,0.32-21.42,0.6-31.46,0.99c-10.04,0.35-19.4,0.74-27.44,1.06c-16.06,0.67-26.77,1.23-26.77,1.23v0.95
		c0,0,10.71,0.56,26.77,1.23c8.03,0.32,17.4,0.71,27.44,1.06c10.04,0.4,20.75,0.67,31.46,1c5.36,0.16,10.71,0.39,15.98,0.65
		c5.27,0.25,10.46,0.46,15.47,0.49c10.04,0.02,19.41-0.52,27.44-1.12c4.01-0.3,7.69-0.65,10.96-1.02c3.26-0.36,6.11-0.72,8.45-1.06
		c4.68-0.66,7.36-1.21,7.36-1.21v-0.95C313.42,87.83,310.74,87.28,306.06,86.62z"/>
	<linearGradient id="SVGID_17_" gradientUnits="userSpaceOnUse" x1="187.9971" y1="135.4052" x2="313.8001" y2="135.4052">
		<stop  offset="0" style="stop-color:#00B8A7"/>
		<stop  offset="0.5545" style="stop-color:#00A9A1"/>
		<stop  offset="1" style="stop-color:#00A9A1"/>
	</linearGradient>
	<path class="st16" d="M308.39,133.72c-1.72-0.34-3.81-0.69-6.2-1.06c-2.4-0.37-5.1-0.72-8.05-1.03c-5.9-0.61-12.78-1.14-20.15-1.12
		c-3.68,0.03-7.49,0.24-11.36,0.5c-3.87,0.24-7.8,0.48-11.74,0.64c-7.86,0.32-15.72,0.61-23.09,1c-7.37,0.35-14.25,0.74-20.14,1.06
		c-11.8,0.67-19.66,1.23-19.66,1.23v0.94c0,0,7.86,0.56,19.66,1.23c5.89,0.33,12.77,0.72,20.14,1.06c7.38,0.39,15.24,0.67,23.09,1
		c3.93,0.16,7.87,0.39,11.74,0.64c3.87,0.25,7.68,0.46,11.36,0.49c7.37,0.02,14.25-0.52,20.15-1.12c2.95-0.31,5.65-0.65,8.05-1.03
		c2.39-0.36,4.48-0.72,6.2-1.06c3.43-0.66,5.41-1.21,5.41-1.21v-0.94C313.8,134.94,311.83,134.39,308.39,133.72z"/>
	<linearGradient id="SVGID_18_" gradientUnits="userSpaceOnUse" x1="157.401" y1="151.1092" x2="265.0177" y2="151.1092">
		<stop  offset="0" style="stop-color:#00B8A7"/>
		<stop  offset="0.5545" style="stop-color:#00A9A1"/>
		<stop  offset="1" style="stop-color:#00A9A1"/>
	</linearGradient>
	<path class="st17" d="M260.4,149.42c-1.48-0.33-3.26-0.69-5.31-1.06c-2.05-0.37-4.36-0.72-6.88-1.03
		c-5.04-0.6-10.93-1.15-17.23-1.12c-3.15,0.02-6.41,0.23-9.72,0.49c-3.32,0.25-6.67,0.48-10.04,0.64c-6.72,0.33-13.45,0.6-19.76,1
		c-6.3,0.35-12.19,0.74-17.24,1.06c-10.09,0.67-16.81,1.23-16.81,1.23v0.94c0,0,6.72,0.56,16.81,1.23
		c5.05,0.33,10.94,0.72,17.24,1.07c6.31,0.39,13.03,0.67,19.76,0.99c3.37,0.16,6.72,0.39,10.04,0.65c3.31,0.25,6.57,0.47,9.72,0.49
		c6.3,0.03,12.19-0.51,17.23-1.12c2.53-0.31,4.83-0.65,6.88-1.03c2.05-0.36,3.83-0.72,5.31-1.06c2.94-0.66,4.62-1.21,4.62-1.21
		v-0.94C265.02,150.64,263.34,150.09,260.4,149.42z"/>
	<linearGradient id="SVGID_19_" gradientUnits="userSpaceOnUse" x1="128.0378" y1="166.8106" x2="217.6715" y2="166.8106">
		<stop  offset="0" style="stop-color:#00B8A7"/>
		<stop  offset="0.5545" style="stop-color:#00A9A1"/>
		<stop  offset="1" style="stop-color:#00A9A1"/>
	</linearGradient>
	<path class="st18" d="M213.82,165.58c-1.23-0.25-2.72-0.51-4.42-0.77c-1.71-0.27-3.63-0.53-5.73-0.75
		c-4.21-0.44-9.11-0.84-14.36-0.82c-2.62,0.02-5.34,0.18-8.1,0.36c-2.75,0.18-5.56,0.36-8.36,0.47c-5.6,0.24-11.21,0.44-16.46,0.73
		c-5.25,0.25-10.15,0.53-14.35,0.77c-8.4,0.49-14.01,0.89-14.01,0.89v0.69c0,0,5.6,0.4,14.01,0.9c4.2,0.24,9.1,0.53,14.35,0.77
		c5.25,0.29,10.86,0.49,16.46,0.72c2.8,0.12,5.6,0.29,8.36,0.47c2.76,0.18,5.48,0.34,8.1,0.36c5.25,0.01,10.15-0.38,14.36-0.82
		c2.1-0.22,4.02-0.47,5.73-0.75c1.7-0.26,3.19-0.52,4.42-0.77c2.45-0.48,3.85-0.89,3.85-0.89v-0.69
		C217.67,166.46,216.27,166.07,213.82,165.58z"/>
	<linearGradient id="SVGID_20_" gradientUnits="userSpaceOnUse" x1="1.6572" y1="72.5952" x2="278.9554" y2="72.5952">
		<stop  offset="0" style="stop-color:#00B8A7"/>
		<stop  offset="0.5545" style="stop-color:#00A9A1"/>
		<stop  offset="1" style="stop-color:#00A9A1"/>
	</linearGradient>
	<path class="st19" d="M267.04,70.92c-3.79-0.35-8.39-0.7-13.68-1.07c-5.28-0.37-11.23-0.72-17.73-1.02
		c-12.99-0.6-28.16-1.15-44.41-1.12c-8.12,0.03-16.52,0.24-25.05,0.49c-8.53,0.25-17.19,0.48-25.85,0.64
		c-17.34,0.32-34.67,0.6-50.91,0.99c-16.25,0.35-31.41,0.74-44.42,1.06c-25.99,0.67-43.32,1.23-43.32,1.23v0.94
		c0,0,17.33,0.56,43.32,1.23c13,0.33,28.16,0.72,44.42,1.06c16.25,0.4,33.58,0.67,50.91,1c8.66,0.16,17.32,0.39,25.85,0.65
		c8.53,0.25,16.93,0.46,25.05,0.48c16.24,0.03,31.41-0.52,44.41-1.12c6.5-0.31,12.46-0.65,17.73-1.03
		c5.29-0.36,9.89-0.72,13.68-1.06c7.58-0.67,11.92-1.22,11.92-1.22v-0.94C278.96,72.13,274.62,71.58,267.04,70.92z"/>
	<linearGradient id="SVGID_21_" gradientUnits="userSpaceOnUse" x1="33.5668" y1="56.8931" x2="219.5921" y2="56.8931">
		<stop  offset="0" style="stop-color:#00B8A7"/>
		<stop  offset="0.5545" style="stop-color:#00A9A1"/>
		<stop  offset="1" style="stop-color:#00A9A1"/>
	</linearGradient>
	<path class="st20" d="M211.59,55.21c-2.53-0.35-5.62-0.7-9.17-1.07c-3.54-0.36-7.54-0.72-11.9-1.02
		c-8.72-0.61-18.9-1.15-29.79-1.13c-5.45,0.02-11.09,0.24-16.81,0.49c-5.72,0.25-11.53,0.49-17.35,0.65
		c-11.62,0.32-23.25,0.6-34.16,1c-10.9,0.34-21.07,0.74-29.79,1.06c-17.43,0.67-29.07,1.23-29.07,1.23v0.94
		c0,0,11.64,0.56,29.07,1.23c8.72,0.32,18.89,0.71,29.79,1.06c10.9,0.39,22.53,0.67,34.16,1c5.81,0.16,11.62,0.39,17.35,0.64
		c5.72,0.25,11.36,0.46,16.81,0.49c10.89,0.02,21.07-0.52,29.79-1.12c4.36-0.31,8.36-0.65,11.9-1.03c3.55-0.36,6.63-0.72,9.17-1.06
		c5.09-0.66,8-1.21,8-1.21v-0.94C219.59,56.43,216.69,55.88,211.59,55.21z"/>
</g>
</svg>
